# xmcd
#
# Track frame offsets:
#  150
#  17871
#  50235
#  78939
#  102699
#  116720
#  147143
#  164666
#  181049
#  196812
#  210554
#  225978
#  247714
#  264188
#  281543
#
# Disc length: 3972 seconds
#
# Revision: 0
# Processed by: cddbd v1.5.1PL2 Copyright (c) Steve Scherf et al.
# Submitted via: Collectorz.com_Music_Collector 6.10
#
DISCID=c80f820f
DTITLE=Espace 80 - Espace 80 [CD2)
DYEAR=2001
DGENRE=Dance 80's
TTITLE0=Imagination - Just an illusion
TTITLE1=Oliver Cheatham - Get down Saturday night
TTITLE2=Kool and The Gang - Ladies night
TTITLE3=Jimmy Cliff - Reggae night
TTITLE4=Righeira - Vamos a la playa
TTITLE5=Alisha - Baby talk
TTITLE6=Lorca - Ritmo de la noche
TTITLE7=Franky Paolo - Que pasa? mañana!
TTITLE8=Rick Astley - Never gonna give you up
TTITLE9=Images - Les démons de minuit
TTITLE10=Baltimora - Tarzan boy
TTITLE11=John Travolta and Olivia Newton-John - The Grease megamix
TTITLE12=Technotronic - Pump up the jam
TTITLE13=Two Boys - I won't let you down
TTITLE14=Cartouche - Feel the groove
EXTD=
EXTT0=
EXTT1=
EXTT2=
EXTT3=
EXTT4=
EXTT5=
EXTT6=
EXTT7=
EXTT8=
EXTT9=
EXTT10=
EXTT11=
EXTT12=
EXTT13=
EXTT14=
PLAYORDER=
